{"title":"Seven.Pounds.2008.1080p.DTS.x264.iSAAC","uid":11372971,"size":13023311552,"categoryP":"video","categoryS":"hd___movies","magnet":"?xt=urn:btih:0d857df2cb0cf1f8a754027b207b36c7a344cc21&amp;dn=Seven.Pounds.2008.1080p.DTS.x264.iSAAC&amp;tr=udp%3A%2F%2Ftracker.openbittorrent.com%3A80&amp;tr=udp%3A%2F%2Fopen.demonii.com%3A1337&amp;tr=udp%3A%2F%2Ftracker.coppersurfer.tk%3A6969&amp;tr=udp%3A%2F%2Fexodus.desync.com%3A6969","seeders":1,"leechers":2,"uploader":"Isaac09","files":-1,"time":1415112555,"description":"Seven.Pounds.2008.1080p.DTS.x264.iSAAC\n\nDirector: Gabriele Muccino\nWriters: Grant Nieporte\nStars: Will Smith, Rosario Dawson, Woody Harrelson, Michael Ealy\n &lt;a href=&quot;\nhttp://www.imdb.com/title/tt0814314/&quot; rel=&quot;nofollow&quot; target=&quot;_NEW&quot;&gt;\nhttp://www.imdb.com/title/tt0814314/&lt;/a&gt;\n\nA man with a fateful secret embarks on an extraordinary journey of redemption by forever changing the lives of seven strangers.\n\nRUNTIME.......: 2h 03m\nVIDEO CODEC...: x264\nFRAMERATE.....: 23.976 fps\nBITRATE.......: 14.1 Mbps\nRESOLUTION....: 1920x800\nSOURCE........: Retail Blu-Ray\nGENRE.........: Drama\n\nAUDIO 1.......: English DTS 5.1 @ 1509 Kbps\nAUDIO 1.......: Commentary @ 96 Kbps\nSUBTITLES.....: Russian, Ukrainian, English\n\nFormat                                   : Matroska\nFormat version                           : Version 4 / Version 2\nFile size                                : 12.1 GiB\nDuration                                 : 2h 3mn\nOverall bit rate mode                    : Variable\nOverall bit rate                         : 14.1 Mbps\nMovie name                               : zackary\nEncoded date                             : UTC 2014-10-28 00:20:17\nWriting application                      : mkvmerge v7.2.0 ('On Every Street') 64bit built on Sep 13 2014 15:52:10\nWriting library                          : libebml v1.3.0 + libmatroska v1.4.1\nDURATION                                 : 02:03:05.442000000\nNUMBER_OF_FRAMES                         : 419932\nNUMBER_OF_BYTES                          : 87741164\n_STATISTICS_WRITING_APP                  : mkvmerge v7.2.0 ('On Every Street') 64bit built on Sep 13 2014 15:52:10\n_STATISTICS_WRITING_DATE_UTC             : 2014-10-28 00:20:17\n_STATISTICS_TAGS                         : BPS DURATION NUMBER_OF_FRAMES NUMBER_OF_BYTES\n\nVideo\nID                                       : 1\nFormat                                   : AVC\nFormat/Info                              : Advanced Video Codec\nFormat profile                           : &lt;a class=&quot;__cf_email__&quot; href=&quot;/cdn-cgi/l/email-protection&quot; data-cfemail=&quot;4e062729260e027a607f&quot;&gt;[email&amp;#160;protected]&lt;/a&gt;&lt;script cf-hash='f9e31' type=&quot;text/javascript&quot;&gt;\n/* &lt;![CDATA[ */!function(){try{var t=&quot;currentScript&quot;in document?document.currentScript:function(){for(var t=document.getElementsByTagName(&quot;script&quot;),e=t.length;e--;)if(t[e].getAttribute(&quot;cf-hash&quot;))return t[e]}();if(t&amp;&amp;t.previousSibling){var e,r,n,i,c=t.previousSibling,a=c.getAttribute(&quot;data-cfemail&quot;);if(a){for(e=&quot;&quot;,r=parseInt(a.substr(0,2),16),n=2;a.length-n;n+=2)i=parseInt(a.substr(n,2),16)^r,e+=String.fromCharCode(i);e=document.createTextNode(e),c.parentNode.replaceChild(e,c)}}}catch(u){}}();/* ]]&gt; */&lt;/script&gt;\nFormat settings, CABAC                   : Yes\nFormat settings, ReFrames                : 5 frames\nCodec ID                                 : V_MPEG4/ISO/AVC\nDuration                                 : 2h 3mn\nBit rate                                 : 12.5 Mbps\nWidth                                    : 1 920 pixels\nHeight                                   : 800 pixels\nDisplay aspect ratio                     : 2.40:1\nFrame rate mode                          : Constant\nFrame rate                               : 23.976 fps\nColor space                              : YUV\nChroma subsampling                       : 4:2:0\nBit depth                                : 8 bits\nScan type                                : Progressive\nBits/(Pixel*Frame)                       : 0.339\nStream size                              : 10.5 GiB (87%)\nTitle                                    : 12 Mbp/s AVC MPEG-4\nWriting library                          : x264 core 67 r1145M d2e1e1c\nEncoding settings                        : cabac=1 / ref=5 / deblock=1:-3:-3 / analyse=0x3:0x113 / me=umh / subme=9 / psy_rd=0.8:0.0 / mixed_ref=1 / me_range=32 / chroma_me=1 / trellis=2 / 8x8dct=1 / cqm=0 / deadzone=21,11 / chroma_qp_offset=-2 / threads=6 / nr=0 / decimate=1 / mbaff=0 / bframes=3 / b_pyramid=1 / b_adapt=2 / b_bias=0 / direct=3 / wpredb=1 / keyint=250 / keyint_min=25 / scenecut=40 / rc=2pass / bitrate=12500 / ratetol=1.0 / qcomp=0.60 / qpmin=10 / qpmax=51 / qpstep=4 / cplxblur=20.0 / qblur=0.5 / vbv_maxrate=38000 / vbv_bufsize=38000 / ip_ratio=1.40 / pb_ratio=1.30 / aq=1:0.80\nLanguage                                 : English\nDefault                                  : Yes\nForced                                   : No\nDURATION                                 : 02:03:05.432000000\nNUMBER_OF_FRAMES                         : 177073\nNUMBER_OF_BYTES                          : 11538132231\n_STATISTICS_WRITING_APP                  : mkvmerge v7.2.0 ('On Every Street') 64bit built on Sep 13 2014 15:52:10\n_STATISTICS_WRITING_DATE_UTC             : 2014-10-28 00:20:17\n_STATISTICS_TAGS                         : BPS DURATION NUMBER_OF_FRAMES NUMBER_OF_BYTES\n\nAudio #1\nID                                       : 2\nFormat                                   : DTS\nFormat/Info                              : Digital Theater Systems\nMode                                     : 16\nFormat settings, Endianness              : Big\nCodec ID                                 : A_DTS\nDuration                                 : 2h 3mn\nBit rate mode                            : Constant\nBit rate                                 : 1 510 Kbps\nChannel(s)                               : 6 channels\nChannel positions                        : Front: L C R, Side: L R, LFE\nSampling rate                            : 48.0 KHz\nBit depth                                : 24 bits\nCompression mode                         : Lossy\nStream size                              : 1.30 GiB (11%)\nTitle                                    : DTS 6ch 1536kbps\nLanguage                                 : English\nDefault                                  : No\nForced                                   : No\n\nAudio #2\nID                                       : 6\nFormat                                   : Vorbis\nFormat settings, Floor                   : 1\nCodec ID                                 : A_VORBIS\nDuration                                 : 2h 3mn\nBit rate mode                            : Variable\nBit rate                                 : 96.0 Kbps\nChannel(s)                               : 2 channels\nSampling rate                            : 48.0 KHz\nCompression mode                         : Lossy\nStream size                              : 84.5 MiB (1%)\nTitle                                    : Commentary track OGG stereo 96kbps\nWriting library                          : libVorbis 1.0 (UTC 2002-07-17)\nLanguage                                 : English\nDefault                                  : No\nForced                                   : No\n\nText #1\nID                                       : 3\nFormat                                   : UTF-8\nCodec ID                                 : S_TEXT/UTF8\nCodec ID/Info                            : UTF-8 Plain Text\nTitle                                    : Forced\nLanguage                                 : Russian\nDefault                                  : Yes\nForced                                   : No\n\nText #2\nID                                       : 4\nFormat                                   : UTF-8\nCodec ID                                 : S_TEXT/UTF8\nCodec ID/Info                            : UTF-8 Plain Text\nTitle                                    : Forced\nLanguage                                 : Ukrainian\nDefault                                  : No\nForced                                   : No\n\nText #3\nID                                       : 5\nFormat                                   : UTF-8\nCodec ID                                 : S_TEXT/UTF8\nCodec ID/Info                            : UTF-8 Plain Text\nLanguage                                 : English\nDefault                                  : No\nForced                                   : No","torrent":{"xt":"urn:btih:0d857df2cb0cf1f8a754027b207b36c7a344cc21","amp;dn":"Seven.Pounds.2008.1080p.DTS.x264.iSAAC","amp;tr":["udp%3A%2F%2Ftracker.openbittorrent.com%3A80","udp%3A%2F%2Fopen.demonii.com%3A1337","udp%3A%2F%2Ftracker.coppersurfer.tk%3A6969","udp%3A%2F%2Fexodus.desync.com%3A6969"],"infoHash":"0d857df2cb0cf1f8a754027b207b36c7a344cc21","infoHashBuffer":{"type":"Buffer","data":[13,133,125,242,203,12,241,248,167,84,2,123,32,123,54,199,163,68,204,33]},"announce":[],"urlList":[]}}